<svg width="150" height="150" viewBox="0 0 150 150" fill="none" xmlns="http://www.w3.org/2000/svg">
<path d="M68.4032 6.1096C65.5616 6.33287 61.0149 7.12448 57.5237 7.99728C45.4871 11.0013 34.567 17.1515 25.5345 26.0419C17.3748 34.0595 11.1028 44.5534 7.83489 55.6157C2.47629 73.8024 4.76993 93.4506 14.1678 109.892C17.5778 115.88 21.1705 120.467 26.2855 125.399C34.4655 133.315 43.9039 138.836 54.6414 142.003C57.9296 142.957 61.8268 143.809 65.5616 144.337C68.2409 144.743 69.5602 144.804 74.4925 144.804C79.7496 144.804 80.6022 144.763 83.9919 144.256C92.3545 142.997 99.7632 140.643 106.624 137.05C110.582 134.98 115.149 131.955 118.62 129.114C122.192 126.231 126.881 121.319 129.946 117.321C143.18 99.9865 147.382 76.9283 141.15 55.6157C139.811 51.0284 137.72 45.9946 135.467 41.9756C124.831 22.9161 106.624 10.1082 85.3112 6.71852C80.3586 5.92691 73.8024 5.68335 68.4032 6.1096ZM82.7131 7.8958C95.3383 9.39783 106.969 14.3099 117.219 22.4695C118.457 23.4438 120.873 25.6563 122.598 27.4019C133.457 38.2409 140.115 51.9215 142.023 67.226C142.51 71.2449 142.51 79.5467 142.023 83.5859C139.79 101.631 130.737 117.605 116.306 129.012C108.106 135.487 98.0379 140.074 87.3816 142.165C82.9364 143.038 80.866 143.2 74.4925 143.2C70.839 143.2 67.6725 143.099 66.3735 142.936C43.8836 140.176 24.1948 126.414 13.9039 106.258C10.2706 99.1745 7.95667 91.5629 6.96209 83.5859C6.47494 79.5467 6.47494 71.2449 6.96209 67.226C8.87007 51.8403 15.4871 38.3018 26.4885 27.3004C37.5101 16.2585 51.8606 9.35722 66.9824 7.8349C68.7077 7.65222 70.4939 7.46954 70.9404 7.42894C72.7266 7.24626 79.4655 7.51013 82.7131 7.8958Z" fill="#282828"/>
<path d="M69.7226 9.25572C69.1745 9.29631 67.1245 9.58047 65.1962 9.86465C52.977 11.6306 42.3613 16.2584 32.8823 23.9107C25.433 29.9391 19.7699 36.9215 15.5277 45.3653C12.6454 51.069 11.0419 55.5751 9.76317 61.502C8.6468 66.6779 8.42352 68.931 8.42352 75.5074C8.42352 81.9824 8.6671 84.4384 9.86466 89.7158C14.4722 110.419 28.498 127.429 48.004 136.055C60.1015 141.414 74.2896 142.957 87.2801 140.338C96.8606 138.41 104.493 135.101 113.261 129.073C115.311 127.673 119.168 124.344 121.604 121.847C131.894 111.353 138.085 98.7483 140.196 83.931C140.724 80.1759 140.724 70.6563 140.196 66.8809C139.486 61.8471 137.882 55.5345 136.258 51.4546C131.793 40.1691 124.648 30.5683 115.291 23.2408C106.055 16.0149 95.8254 11.6711 83.7889 9.82405C80.9066 9.3978 79.4249 9.29631 75.5074 9.23543C72.889 9.21512 70.2909 9.21512 69.7226 9.25572ZM82.7131 11.1637C89.9797 12.138 96.7591 14.2084 103.315 17.4763C121.543 26.5494 134.31 43.4776 138.106 63.5318C139.75 72.3207 139.465 82.4492 137.294 91.0352C132.483 110.156 119.147 126.17 101.286 134.29C81.1908 143.403 57.7469 141.658 39.276 129.662C26.7929 121.563 17.4154 109.303 12.889 95.1962C7.32745 77.8619 9.37751 58.5588 18.4506 43.0311C25.0473 31.7456 34.3437 23.0582 45.9743 17.3342C50.0947 15.3247 52.8755 14.249 57.0365 13.0717C59.5534 12.341 64.1407 11.4276 66.475 11.184C67.5913 11.0622 68.8295 10.9201 69.2151 10.8795C70.5548 10.7171 81.0893 10.9404 82.7131 11.1637Z" fill="#282828"/>
<path d="M47.6996 60.5886V64.3437H46.9892H46.2788V68.3423C46.2788 72.7469 46.0961 73.5588 44.9797 74.4316C43.8227 75.345 41.9553 75.1827 40.8999 74.0866L40.2909 73.4574L40.1894 68.9513L40.088 64.4452H38.8701H37.6522L37.5913 67.0636C37.5507 69.5196 37.5102 69.6617 37.226 69.2354C37.0433 68.9919 36.6779 67.8958 36.3938 66.82C36.1096 65.7442 35.6631 63.9783 35.3992 62.9229C35.115 61.8674 34.6888 60.1421 34.4249 59.1069C33.9784 57.341 33.7957 56.8538 33.6333 57.0568C33.5927 57.0974 33.1867 58.0514 32.7402 59.1678C31.1367 63.1258 29.2287 67.6928 28.9242 68.3017C28.7618 68.6265 28.4574 69.3572 28.2341 69.9256C28.0311 70.4736 27.7267 70.9404 27.5846 70.9404C27.3207 70.9404 26.6712 69.5399 24.1746 63.5318C23.5859 62.1312 22.9567 60.6292 22.7537 60.1827C22.5507 59.7361 22.1854 58.843 21.9012 58.2138C21.6373 57.5643 21.3532 57.0365 21.2923 57.0365C21.2314 57.0365 20.8863 58.1935 20.521 59.6143C20.1556 61.0555 19.5873 63.207 19.2625 64.4452C18.9175 65.663 18.4912 67.368 18.2679 68.2003C17.7605 70.2706 16.7456 74.1475 16.3599 75.5074C15.8931 77.1718 15.8728 77.1515 17.1922 77.0906L18.3694 77.0298L19.0595 74.3911C19.4249 72.9296 19.9526 70.9201 20.1962 69.9256C20.4601 68.9107 20.8051 67.5913 20.9675 66.9824C21.1299 66.3735 21.3329 65.6224 21.3938 65.2977C21.475 64.9932 21.6576 64.7496 21.82 64.7496C22.0027 64.7496 22.226 64.9932 22.3478 65.2977C22.4493 65.6224 22.7131 66.2314 22.9161 66.6779C23.1394 67.1245 23.7686 68.6265 24.3572 70.027C25.3721 72.5237 26.1028 74.2287 26.793 75.8119C26.9959 76.2584 27.2192 76.8471 27.3004 77.0906C27.4425 77.5372 27.4628 77.5575 27.6861 77.1921C27.8281 76.9892 28.092 76.4208 28.295 75.9134C28.498 75.4059 28.7821 74.7158 28.9242 74.3911C29.1678 73.843 30.1015 71.6306 32.1922 66.617C33.0041 64.6888 33.3897 64.3234 33.613 65.2977C33.6739 65.6224 33.816 66.0893 33.9175 66.3735C34.0189 66.6576 34.2219 67.4289 34.3843 68.0988C34.5467 68.7686 34.9729 70.4127 35.318 71.7524C35.6834 73.092 36.1096 74.8173 36.3126 75.6089L36.6576 77.0298L37.9161 77.0906C39.0731 77.1515 39.1746 77.1109 39.1746 76.7253C39.1746 76.2584 39.4993 76.1975 39.9662 76.6035C40.5142 77.0703 41.6103 77.3342 43.0108 77.3342C44.7361 77.3342 45.7307 77.0501 46.5629 76.299C47.456 75.5277 47.6996 75.548 47.6996 76.4208V77.1515L48.9784 77.0906L50.2368 77.0298L50.3383 72.7469C50.4398 68.6671 50.4601 68.4438 50.9269 67.774C52.429 65.5819 55.0271 65.4398 56.0014 67.5101C56.387 68.322 56.4276 68.7686 56.4276 72.7672V77.1312H57.6455H58.8633V75.7104C58.8633 74.9188 58.9039 74.2896 58.9648 74.2896C59.0054 74.2896 59.6346 74.8579 60.3248 75.5683C61.7862 77.0095 62.5575 77.3342 64.567 77.3342C66.1502 77.3342 67.2463 76.8674 68.383 75.7307C68.8498 75.2639 69.3167 74.8985 69.4181 74.8985C69.5399 74.8985 69.6211 75.4059 69.6211 76.0149V77.1312H70.839C71.9959 77.1312 72.0568 77.1109 72.0568 76.6238C72.0568 76.0961 72.5237 75.9134 72.7876 76.3396C73.2747 77.1515 76.3194 77.6387 77.6793 77.1109C78.3491 76.8674 79.9729 75.345 79.9729 74.9594C79.9729 74.5128 80.2571 74.6549 81.4547 75.8119C82.774 77.0501 83.5047 77.3342 85.433 77.3342C86.9959 77.3342 88.1123 76.8674 89.3708 75.6495L90.2233 74.8376L90.2842 75.9743L90.3451 77.1312H91.6644H92.9635L92.9229 70.7781L92.862 64.4452H91.6441H90.4263L90.3654 65.5007C90.3248 66.0893 90.2436 66.5764 90.1624 66.5764C90.0609 66.5764 89.6549 66.2111 89.2287 65.7848C87.5034 64.0189 85.0068 63.5115 82.977 64.5061C81.2111 65.3789 79.6279 67.6116 79.2625 69.7632C79.1813 70.2503 79.0798 70.636 79.019 70.636C78.9784 70.636 77.9838 70.1894 76.8268 69.6211C74.6143 68.5859 73.9445 67.9567 74.1881 67.1854C74.3505 66.6982 75.2842 66.1705 76.0149 66.1705C76.2991 66.1705 76.8877 66.3532 77.3342 66.5764C78.3897 67.1042 78.6333 67.0839 79.4046 66.3938C80.1962 65.6833 80.0947 65.521 78.4506 64.6482C76.4817 63.613 74.4723 63.816 73.1732 65.1556C72.4019 65.9675 72.0568 65.9472 72.0568 65.0541V64.3437H70.839H69.6211V65.3383C69.6211 65.9066 69.5196 66.4141 69.4181 66.4749C69.2964 66.5561 68.7077 66.1502 68.0988 65.6021C66.9621 64.567 65.6022 63.9377 64.4655 63.9377C62.8011 63.9377 60.8728 65.0135 59.7564 66.5764C58.9648 67.6725 58.7821 67.7131 58.5995 66.8403C58.4574 66.0893 57.2192 64.6888 56.3464 64.2625C55.4939 63.8565 54.1949 63.8362 53.3221 64.2219C52.9567 64.364 52.226 64.8714 51.6576 65.3383C51.1096 65.7848 50.5819 66.1705 50.5007 66.1705C50.4195 66.1705 50.318 64.1001 50.2977 61.5426L50.2368 56.935L48.9784 56.8741L47.6996 56.8132V60.5886ZM66.8606 66.617C67.8958 66.9418 69.2761 68.2814 69.6211 69.3166C70.23 71.184 69.4587 73.3153 67.7537 74.4316C67.023 74.9188 66.6982 75 65.4601 75C64.2219 75 63.8972 74.9188 63.1664 74.4316C62.6996 74.1272 62.0704 73.498 61.7659 73.0311C61.2788 72.3207 61.1976 71.9756 61.1976 70.7578C61.1976 69.4993 61.2788 69.1948 61.8065 68.4032C62.2327 67.774 62.7605 67.3072 63.5115 66.9215C64.7294 66.3126 65.5819 66.2314 66.8606 66.617ZM88.092 66.7997C89.2287 67.3072 89.6549 67.6928 90.1421 68.6468C91.3194 70.9404 90.4872 73.5791 88.2341 74.6752C85.3112 76.0961 82.023 73.9648 82.0027 70.6766C82.0027 67.5913 85.2503 65.5007 88.092 66.7997ZM72.9499 69.9662C73.295 70.2503 74.3505 70.8593 75.3045 71.3058C77.1516 72.138 78.1461 72.9296 78.1461 73.498C78.1461 73.7009 77.9229 74.1272 77.659 74.4316C77.2125 74.9391 77.0298 75 75.954 75C75 75 74.5941 74.8985 74.1069 74.5331C73.5183 74.1069 73.4371 74.1069 72.889 74.3708C72.5643 74.5534 72.2598 74.6143 72.1786 74.5534C72.0162 74.3911 72.0162 69.4181 72.1786 69.4181C72.2395 69.4181 72.5846 69.6617 72.9499 69.9662Z" fill="#282828"/>
<path d="M93.9783 66.9824V77.1312H95.0947H96.2111V75.9134C96.2111 74.4519 96.4141 74.3911 97.368 75.4871C98.8701 77.253 101.834 77.9026 103.863 76.908C104.817 76.4411 106.198 75.0203 106.786 73.8227C107.009 73.4168 107.253 73.0717 107.334 73.0717C107.415 73.0717 107.74 73.5791 108.065 74.2084C108.714 75.4262 110.034 76.6847 111.089 77.0703C111.901 77.3545 114.134 77.3951 115.088 77.1312C115.474 77.0298 116.265 76.5223 116.854 76.0149C117.422 75.5074 117.991 75.1015 118.112 75.1015C118.254 75.1015 118.336 75.5277 118.336 76.1164V77.1312H120.67H123.004V73.5183C123.004 69.0325 123.207 68.18 124.547 67.0027C125.663 66.0081 126.861 65.7442 127.855 66.2517C128.992 66.8606 129.093 67.3072 129.093 72.138C129.093 74.5331 129.154 76.6238 129.215 76.8065C129.317 77.0501 129.641 77.1312 130.555 77.1312H131.752L131.691 71.8944L131.631 66.6373L131.062 65.9066C129.56 63.9377 127.754 63.4303 125.825 64.4452C125.237 64.7496 124.486 65.2571 124.161 65.5819C123.024 66.7185 123.004 66.6373 123.004 61.502V56.8335H121.786H120.568V60.5886V64.3437H119.452H118.336V65.4601C118.336 66.1299 118.254 66.5764 118.112 66.5764C117.991 66.5764 117.483 66.1705 116.996 65.6833C114.154 62.8417 110.095 63.6536 107.862 67.5304C107.415 68.322 107.05 68.3829 106.888 67.7131C106.705 66.9418 104.777 64.9729 103.742 64.4858C103.051 64.161 102.422 64.0392 101.367 64.0392C99.6617 64.0392 98.3626 64.6076 97.3478 65.8051C96.9824 66.2314 96.5764 66.5764 96.4547 66.5764C96.272 66.5764 96.2111 65.2571 96.2111 61.705V56.8335H95.0947H93.9783V66.9824ZM102.26 66.7591C103.193 67.2463 104.229 68.3017 104.513 69.0731C104.858 69.9662 104.777 71.6509 104.35 72.5643C103.072 75.345 99.5196 75.954 97.3478 73.7618C95.2368 71.6509 95.7645 68.2409 98.4235 66.8403C99.5602 66.2517 101.184 66.2111 102.26 66.7591ZM115.758 66.6982C116.732 67.023 117.991 68.2206 118.336 69.1339C118.457 69.4181 118.539 70.1285 118.539 70.7375C118.539 72.1177 118.336 72.6455 117.422 73.6603C115.981 75.2639 113.505 75.5683 111.779 74.3708C110.724 73.64 109.811 71.9553 109.811 70.7375C109.811 69.7226 110.704 67.8755 111.455 67.3275C112.124 66.8403 113.424 66.3938 114.195 66.3735C114.54 66.3735 115.23 66.5155 115.758 66.6982Z" fill="#282828"/>
<path d="M72.4628 80.0338C72.4628 80.9066 72.4425 80.9472 71.8133 81.0284C71.4479 81.0893 70.8796 81.069 70.5751 80.9675C70.1894 80.866 69.682 80.9066 69.0528 81.1299C68.4032 81.3532 68.0988 81.3735 68.0379 81.2111C67.9973 81.0893 67.6928 80.9878 67.3681 80.9878H66.7794V83.18C66.7794 85.8795 66.5765 86.2652 65.2571 86.2652C63.9378 86.2652 63.7348 85.8593 63.7348 83.2003V81.0284L62.2733 80.9472C61.4614 80.9066 60.4871 80.9269 60.1015 81.0081C58.6198 81.3329 57.4425 83.2206 57.747 84.7835C57.9093 85.6766 59.0866 86.9959 60 87.2801C60.8728 87.5846 62.253 87.3613 62.6793 86.8741C62.9838 86.5088 63.0041 86.5088 63.4912 86.8741C64.567 87.7266 66.4344 87.5846 67.3884 86.5697C67.7537 86.184 67.8958 85.7578 67.9567 84.8241C68.0176 84.1542 68.0988 83.6468 68.18 83.6671C68.2409 83.7077 68.8295 83.9919 69.4587 84.3166C70.7781 84.9662 71.1434 85.3112 70.9608 85.7578C70.7578 86.3261 69.9256 86.5494 69.2557 86.2246C68.7889 85.981 68.5656 85.9607 68.2206 86.1637C67.7943 86.387 67.7943 86.4073 68.1394 86.7118C69.1949 87.6657 70.6969 87.6454 71.5291 86.6509C72.5237 85.4736 72.0974 84.5196 70.0677 83.4235C69.5399 83.1394 69.0934 82.7537 69.0528 82.5507C68.9513 82.0839 69.7429 81.7997 70.5345 82.023C70.8593 82.1245 71.4479 82.2057 71.8133 82.2057H72.5034L72.4628 83.8701C72.3816 87.2801 72.3816 87.2801 73.0717 87.2801H73.6806V84.6414V82.0027H74.2896C74.797 82.0027 74.8985 81.9215 74.8985 81.4952C74.8985 81.069 74.797 80.9878 74.3099 80.9878C73.7415 80.9878 73.7009 80.9269 73.64 80.115C73.5792 79.3437 73.5183 79.2625 73.0311 79.2016C72.4831 79.1407 72.4628 79.1813 72.4628 80.0338ZM61.9892 82.2057C62.4966 82.3883 62.5169 82.4492 62.5169 84.1136C62.5169 86.0825 62.3748 86.2652 60.8931 86.2652C59.6752 86.2652 58.8633 85.433 58.8633 84.1745C58.8633 83.3829 58.9648 83.18 59.5737 82.6319C60.3248 81.9621 61.0555 81.8403 61.9892 82.2057Z" fill="#282828"/>
<path d="M15.9742 80.521C15.893 80.5819 15.8322 81.1908 15.8322 81.8403V83.0176H35.9066H55.981L56.1028 82.5507C56.1637 82.2869 56.4276 81.7388 56.7117 81.3532C56.9756 80.9472 57.1583 80.5616 57.0771 80.5007C56.9147 80.3383 16.1366 80.3586 15.9742 80.521Z" fill="#282828"/>
<path d="M91.3396 80.521C91.3396 80.6022 91.502 81.1908 91.6847 81.8403L92.0297 83.0176H111.881H131.732V81.6982V80.3789H111.536C100.433 80.3789 91.3396 80.4398 91.3396 80.521Z" fill="#282828"/>
<path d="M77.0297 80.9675C75.8119 81.272 75.0203 81.9824 74.6549 83.1191C74.3301 84.1339 74.3301 84.2354 74.6752 85.1691C75.1218 86.3261 75.8322 86.9756 76.9688 87.2801C78.1258 87.6049 79.0595 87.3816 79.9526 86.5494C80.9269 85.6766 81.1908 85.6766 81.1908 86.5697C81.1908 87.1989 81.2517 87.2801 81.6982 87.2801H82.2057V85.1691C82.2057 83.18 82.2463 83.0176 82.7334 82.4289C83.0988 82.0027 83.4438 81.7997 83.8295 81.7997C84.9052 81.7997 85.0473 82.1854 85.0473 84.8647V87.2801H85.5548C86.0622 87.2801 86.0622 87.2598 86.0622 85.4533C86.0622 83.6265 86.387 82.3072 86.935 81.9621C87.3207 81.7185 88.3965 81.7794 88.6603 82.0433C88.8227 82.2057 88.9039 83.1191 88.9039 84.7835V87.2801H89.5128H90.1218V84.8241C90.1218 82.0839 89.8782 81.3532 88.8836 81.0081C88.1529 80.7645 87.5034 80.9269 86.8335 81.5561L86.2652 82.0839L85.6766 81.5155C84.9052 80.7645 83.6468 80.7036 82.9364 81.3735C82.368 81.9012 82.2057 81.9215 82.2057 81.3938C82.2057 81.0893 82.0636 80.9878 81.6982 80.9878C81.2517 80.9878 81.1908 81.069 81.1908 81.6576C81.1908 82.0433 81.1299 82.4086 81.0487 82.4695C80.9878 82.5507 80.5209 82.2463 80.0541 81.7997C79.567 81.3532 78.9986 80.9878 78.8159 80.9878C78.613 80.9878 78.2679 80.9472 78.0446 80.9066C77.8214 80.8457 77.3748 80.8863 77.0297 80.9675ZM79.2828 82.6928C80.0744 83.4844 80.1962 84.3166 79.6278 85.2503C78.5521 87.0974 75.7104 86.3261 75.7104 84.1948C75.7307 82.1651 77.8619 81.272 79.2828 82.6928Z" fill="#282828"/>
<path d="M16.0352 86.0622V87.2801H36.4343H56.8335L56.4479 86.4073C56.2246 85.9404 56.0013 85.3924 55.9404 85.1894C55.8389 84.8647 54.7023 84.8444 35.9269 84.8444H16.0352V86.0622Z" fill="#282828"/>
<path d="M91.9485 86.0622V87.2801H111.82H131.691L131.773 86.0622L131.834 84.8444H111.901H91.9485V86.0622Z" fill="#282828"/>
</svg>
